<svg xmlns="http://www.w3.org/2000/svg" xmlns:xlink="http://www.w3.org/1999/xlink" width="200" zoomAndPan="magnify" viewBox="0 0 150 89.999999" height="120" preserveAspectRatio="xMidYMid meet" version="1.0"><defs><g/></defs><g fill="#000000" fill-opacity="1"><g transform="translate(36.057998, 75.411961)"><g><path d="M 0.71875 -6.300781 L 0.71875 0 L 1.589844 0 L 1.589844 -5.527344 L 4.042969 0 L 4.945312 0 L 7.445312 -5.527344 L 7.445312 0 L 8.3125 0 L 8.3125 -6.300781 L 6.984375 -6.300781 L 4.496094 -0.816406 L 2.066406 -6.300781 Z M 0.71875 -6.300781 "/></g></g></g><g fill="#000000" fill-opacity="1"><g transform="translate(48.216224, 75.411961)"><g><path d="M -0.128906 -6.300781 L 2.691406 -2.628906 L 2.691406 0 L 3.582031 0 L 3.582031 -2.628906 L 6.386719 -6.300781 L 5.320312 -6.300781 L 3.125 -3.367188 L 0.953125 -6.300781 Z M -0.128906 -6.300781 "/></g></g></g><g fill="#000000" fill-opacity="1"><g transform="translate(57.582846, 75.411961)"><g><path d="M 1.613281 -2.59375 L 3.609375 -2.59375 C 5.164062 -2.59375 5.945312 -3.167969 5.945312 -4.441406 C 5.945312 -5.710938 5.179688 -6.300781 3.628906 -6.300781 L 0.71875 -6.300781 L 0.71875 0 L 1.613281 0 Z M 1.613281 -5.5625 L 3.332031 -5.5625 C 4.503906 -5.5625 5.050781 -5.300781 5.050781 -4.417969 C 5.050781 -3.617188 4.484375 -3.332031 3.269531 -3.332031 L 1.613281 -3.332031 Z M 1.613281 -5.5625 "/></g></g></g><g fill="#000000" fill-opacity="1"><g transform="translate(67.027493, 75.411961)"><g><path d="M 1.613281 -6.300781 L 0.71875 -6.300781 L 0.71875 0 L 1.613281 0 L 1.613281 -2.976562 L 5.449219 -2.976562 L 5.449219 0 L 6.34375 0 L 6.34375 -6.300781 L 5.449219 -6.300781 L 5.449219 -3.800781 L 1.613281 -3.800781 Z M 1.613281 -6.300781 "/></g></g></g><g fill="#000000" fill-opacity="1"><g transform="translate(77.217727, 75.411961)"><g><path d="M 1.613281 -5.476562 L 3.773438 -5.476562 C 5.34375 -5.476562 6.152344 -4.816406 6.152344 -3.160156 C 6.152344 -1.449219 5.34375 -0.824219 3.773438 -0.824219 L 1.613281 -0.824219 Z M 0.71875 0 L 3.496094 0 C 5.613281 0 7.082031 -0.71875 7.082031 -3.148438 C 7.082031 -5.441406 5.753906 -6.300781 3.84375 -6.300781 L 0.71875 -6.300781 Z M 0.71875 0 "/></g></g></g><g fill="#000000" fill-opacity="1"><g transform="translate(87.798087, 75.411961)"><g><path d="M 0.929688 0 L 1.96875 0 L 1.96875 -1.042969 L 0.929688 -1.042969 Z M 0.929688 0 "/></g></g></g><g fill="#000000" fill-opacity="1"><g transform="translate(93.835596, 75.411961)"><g><path d="M 0.375 -3.148438 C 0.375 -1.144531 1.675781 0.164062 3.816406 0.164062 C 5.96875 0.164062 7.273438 -1.144531 7.273438 -3.148438 C 7.273438 -5.15625 5.96875 -6.464844 3.828125 -6.464844 C 1.675781 -6.464844 0.375 -5.15625 0.375 -3.148438 Z M 1.300781 -3.148438 C 1.300781 -4.695312 2.222656 -5.621094 3.816406 -5.621094 C 5.421875 -5.621094 6.34375 -4.695312 6.34375 -3.148438 C 6.34375 -1.613281 5.433594 -0.675781 3.828125 -0.675781 C 2.222656 -0.675781 1.300781 -1.605469 1.300781 -3.148438 Z M 1.300781 -3.148438 "/></g></g></g><g fill="#000000" fill-opacity="1"><g transform="translate(104.60669, 75.411961)"><g><path d="M 0.71875 0 L 1.613281 0 L 1.613281 -2.707031 L 3.964844 -2.707031 C 4.988281 -2.707031 5.1875 -2.421875 5.265625 -1.1875 C 5.3125 -0.519531 5.34375 -0.183594 5.421875 0 L 6.464844 0 C 6.273438 -0.183594 6.230469 -0.695312 6.179688 -1.527344 C 6.109375 -2.648438 5.875 -2.90625 5.1875 -3.035156 C 5.902344 -3.261719 6.273438 -3.765625 6.273438 -4.582031 C 6.273438 -5.691406 5.5 -6.300781 4.035156 -6.300781 L 0.71875 -6.300781 Z M 1.613281 -5.5625 L 3.601562 -5.5625 C 4.816406 -5.5625 5.378906 -5.363281 5.378906 -4.511719 C 5.378906 -3.695312 4.832031 -3.445312 3.679688 -3.445312 L 1.613281 -3.445312 Z M 1.613281 -5.5625 "/></g></g></g><g fill="#000000" fill-opacity="1"><g transform="translate(114.614865, 75.411961)"><g><path d="M 5.789062 -4.3125 L 6.699219 -4.3125 C 6.578125 -5.542969 5.355469 -6.464844 3.714844 -6.464844 C 1.632812 -6.464844 0.375 -5.164062 0.375 -3.148438 C 0.375 -1.164062 1.648438 0.164062 3.609375 0.164062 C 4.71875 0.164062 5.5625 -0.261719 6.046875 -1.058594 L 6.136719 0 L 6.757812 0 L 6.757812 -3.375 L 3.929688 -3.375 L 3.929688 -2.550781 L 5.925781 -2.550781 C 5.8125 -1.414062 4.921875 -0.675781 3.617188 -0.675781 C 2.1875 -0.675781 1.300781 -1.632812 1.300781 -3.148438 C 1.300781 -4.6875 2.179688 -5.621094 3.644531 -5.621094 C 4.789062 -5.621094 5.554688 -5.144531 5.789062 -4.3125 Z M 5.789062 -4.3125 "/></g></g></g><g fill="#000000" fill-opacity="1"><g transform="translate(8.20246, 44.380696)"><g><path d="M 42.640625 -31.140625 C 43.710938 -30.285156 44.582031 -29.300781 45.25 -28.1875 C 45.925781 -27.070312 46.378906 -25.820312 46.609375 -24.4375 C 46.722656 -23.726562 46.742188 -23.03125 46.671875 -22.34375 C 46.609375 -21.65625 46.488281 -20.96875 46.3125 -20.28125 C 46.039062 -19.15625 45.640625 -18.085938 45.109375 -17.078125 C 44.585938 -16.066406 43.976562 -15.101562 43.28125 -14.1875 C 42.34375 -12.988281 41.296875 -11.921875 40.140625 -10.984375 C 38.992188 -10.054688 37.769531 -9.210938 36.46875 -8.453125 C 33.71875 -6.847656 30.828125 -5.539062 27.796875 -4.53125 C 27.597656 -4.445312 27.382812 -4.367188 27.15625 -4.296875 C 26.84375 -4.191406 26.625 -4.101562 26.5 -4.03125 C 26.375 -3.957031 26.289062 -3.847656 26.25 -3.703125 C 26.21875 -3.554688 26.203125 -3.332031 26.203125 -3.03125 C 26.203125 0.78125 26.195312 4.582031 26.1875 8.375 C 26.1875 8.875 26.1875 9.367188 26.1875 9.859375 C 26.1875 9.890625 26.1875 9.910156 26.1875 9.921875 C 26.1875 10.191406 26.179688 10.460938 26.171875 10.734375 C 26.171875 11.003906 26.128906 11.265625 26.046875 11.515625 C 25.929688 11.953125 25.664062 12.160156 25.25 12.140625 C 24.882812 12.128906 24.640625 11.945312 24.515625 11.59375 C 24.367188 11.019531 24.304688 10.425781 24.328125 9.8125 C 24.328125 9.226562 24.328125 8.648438 24.328125 8.078125 C 24.328125 4.816406 24.328125 1.566406 24.328125 -1.671875 C 24.328125 -1.796875 24.328125 -1.921875 24.328125 -2.046875 C 24.378906 -2.429688 24.34375 -2.847656 24.21875 -3.296875 C 23.988281 -3.273438 23.785156 -3.238281 23.609375 -3.1875 C 23.316406 -3.101562 23.035156 -3.082031 22.765625 -3.125 C 22.660156 -3.144531 22.566406 -3.171875 22.484375 -3.203125 C 22.410156 -3.242188 22.363281 -3.320312 22.34375 -3.4375 C 22.34375 -3.664062 22.441406 -3.8125 22.640625 -3.875 C 23.023438 -4.03125 23.414062 -4.171875 23.8125 -4.296875 C 24.175781 -4.410156 24.347656 -4.65625 24.328125 -5.03125 C 24.328125 -5.257812 24.328125 -5.492188 24.328125 -5.734375 C 24.328125 -5.859375 24.328125 -5.992188 24.328125 -6.140625 C 24.328125 -8.085938 24.328125 -10.023438 24.328125 -11.953125 C 24.347656 -16.273438 24.359375 -20.597656 24.359375 -24.921875 C 24.359375 -24.960938 24.359375 -25.019531 24.359375 -25.09375 C 24.359375 -25.414062 24.363281 -25.726562 24.375 -26.03125 C 24.425781 -26.59375 24.734375 -26.875 25.296875 -26.875 C 25.835938 -26.863281 26.132812 -26.578125 26.1875 -26.015625 C 26.195312 -25.734375 26.195312 -25.457031 26.1875 -25.1875 C 26.1875 -25.09375 26.1875 -25 26.1875 -24.90625 C 26.1875 -23.550781 26.1875 -22.203125 26.1875 -20.859375 C 26.195312 -16.179688 26.203125 -11.503906 26.203125 -6.828125 C 26.203125 -6.710938 26.203125 -6.59375 26.203125 -6.46875 C 26.179688 -6.070312 26.21875 -5.691406 26.3125 -5.328125 C 26.40625 -5.242188 26.492188 -5.207031 26.578125 -5.21875 C 26.671875 -5.238281 26.753906 -5.265625 26.828125 -5.296875 C 29.085938 -6.140625 31.25 -7.140625 33.3125 -8.296875 C 35.382812 -9.453125 37.320312 -10.816406 39.125 -12.390625 C 41.457031 -14.429688 43.109375 -16.941406 44.078125 -19.921875 C 44.566406 -21.566406 44.703125 -23.09375 44.484375 -24.5 C 44.273438 -25.90625 43.78125 -27.164062 43 -28.28125 C 42.21875 -29.40625 41.234375 -30.359375 40.046875 -31.140625 C 37.984375 -32.492188 35.53125 -33.332031 32.6875 -33.65625 C 29.851562 -33.976562 26.878906 -33.875 23.765625 -33.34375 C 20.648438 -32.8125 17.644531 -31.945312 14.75 -30.75 C 11.851562 -29.5625 9.3125 -28.128906 7.125 -26.453125 C 4.945312 -24.785156 3.367188 -22.984375 2.390625 -21.046875 C 2.160156 -20.660156 2 -20.253906 1.90625 -19.828125 C 1.8125 -19.410156 1.820312 -18.972656 1.9375 -18.515625 C 2 -18.242188 1.957031 -18.046875 1.8125 -17.921875 C 1.675781 -17.796875 1.484375 -17.75 1.234375 -17.78125 C 0.710938 -17.863281 0.359375 -18.132812 0.171875 -18.59375 C 0.00390625 -19 -0.0234375 -19.410156 0.078125 -19.828125 C 0.253906 -20.671875 0.582031 -21.4375 1.0625 -22.125 C 2.625 -24.394531 4.789062 -26.410156 7.5625 -28.171875 C 10.34375 -29.929688 13.421875 -31.375 16.796875 -32.5 C 20.171875 -33.632812 23.546875 -34.363281 26.921875 -34.6875 C 30.304688 -35.019531 33.375 -34.878906 36.125 -34.265625 C 37.332031 -33.992188 38.476562 -33.601562 39.5625 -33.09375 C 40.65625 -32.582031 41.679688 -31.929688 42.640625 -31.140625 Z M 42.640625 -31.140625 "/></g></g></g><g fill="#000000" fill-opacity="1"><g transform="translate(48.978456, 44.380696)"><g><path d="M 44.21875 -7.0625 C 44.394531 -7.050781 44.535156 -6.988281 44.640625 -6.875 C 44.742188 -6.769531 44.785156 -6.664062 44.765625 -6.5625 C 44.722656 -6.414062 44.648438 -6.320312 44.546875 -6.28125 C 44.441406 -6.238281 44.332031 -6.21875 44.21875 -6.21875 C 42.988281 -6.257812 41.765625 -6.21875 40.546875 -6.09375 C 39.734375 -6.03125 38.90625 -5.984375 38.0625 -5.953125 C 37.226562 -5.929688 36.398438 -5.878906 35.578125 -5.796875 C 35.378906 -5.785156 35.1875 -5.773438 35 -5.765625 C 34.59375 -5.765625 34.398438 -5.554688 34.421875 -5.140625 C 34.398438 -4.816406 34.390625 -4.484375 34.390625 -4.140625 C 34.390625 -4.046875 34.390625 -3.957031 34.390625 -3.875 C 34.390625 -2.3125 34.390625 -0.753906 34.390625 0.796875 C 34.390625 4.984375 34.390625 9.171875 34.390625 13.359375 C 34.390625 14.097656 34.351562 14.835938 34.28125 15.578125 C 34.25 15.960938 34.019531 16.15625 33.59375 16.15625 C 33.09375 16.175781 32.804688 16 32.734375 15.625 C 32.648438 15.019531 32.609375 14.414062 32.609375 13.8125 C 32.609375 9.664062 32.609375 5.515625 32.609375 1.359375 C 32.609375 0.046875 32.609375 -1.265625 32.609375 -2.578125 C 32.609375 -2.765625 32.609375 -2.945312 32.609375 -3.125 C 32.609375 -3.738281 32.597656 -4.347656 32.578125 -4.953125 C 32.597656 -5.460938 32.375 -5.6875 31.90625 -5.625 C 31.539062 -5.582031 31.171875 -5.546875 30.796875 -5.515625 C 29.222656 -5.390625 27.640625 -5.238281 26.046875 -5.0625 C 24.628906 -4.894531 23.222656 -4.710938 21.828125 -4.515625 C 21.285156 -4.429688 20.753906 -4.359375 20.234375 -4.296875 C 20.046875 -4.253906 19.875 -4.21875 19.71875 -4.1875 C 19.550781 -4.15625 19.398438 -4.128906 19.265625 -4.109375 C 18.878906 -4.054688 18.691406 -3.832031 18.703125 -3.4375 C 18.691406 -2.84375 18.6875 -2.25 18.6875 -1.65625 C 18.664062 -0.757812 18.65625 0.128906 18.65625 1.015625 C 18.65625 2.367188 18.65625 3.722656 18.65625 5.078125 C 18.65625 6.523438 18.644531 7.984375 18.625 9.453125 C 18.644531 9.910156 18.625 10.363281 18.5625 10.8125 C 18.5 11.238281 18.234375 11.441406 17.765625 11.421875 C 17.273438 11.441406 17.007812 11.238281 16.96875 10.8125 C 16.90625 10.25 16.875 9.6875 16.875 9.125 C 16.875 6.375 16.867188 3.625 16.859375 0.875 C 16.859375 -0.0078125 16.859375 -0.894531 16.859375 -1.78125 C 16.828125 -1.875 16.828125 -1.976562 16.859375 -2.09375 C 16.859375 -2.269531 16.84375 -2.445312 16.8125 -2.625 C 16.84375 -3.164062 16.800781 -3.484375 16.6875 -3.578125 C 16.570312 -3.679688 16.253906 -3.675781 15.734375 -3.5625 C 12.128906 -3.019531 8.5625 -2.34375 5.03125 -1.53125 C 4.382812 -1.375 3.75 -1.195312 3.125 -1 C 2.5 -0.8125 1.894531 -0.5625 1.3125 -0.25 C 0.988281 -0.0625 0.628906 0.0234375 0.234375 0.015625 C 0.128906 -0.00390625 0.0234375 -0.0390625 -0.078125 -0.09375 C -0.179688 -0.144531 -0.269531 -0.222656 -0.34375 -0.328125 C -0.382812 -0.460938 -0.375 -0.578125 -0.3125 -0.671875 C -0.25 -0.765625 -0.171875 -0.84375 -0.078125 -0.90625 C 0.390625 -1.269531 0.898438 -1.546875 1.453125 -1.734375 C 1.472656 -1.734375 1.5 -1.738281 1.53125 -1.75 C 2.84375 -2.25 4.179688 -2.628906 5.546875 -2.890625 C 8.703125 -3.578125 11.875 -4.164062 15.0625 -4.65625 C 15.507812 -4.726562 15.96875 -4.804688 16.4375 -4.890625 C 16.644531 -4.929688 16.757812 -5.0625 16.78125 -5.28125 C 16.800781 -5.695312 16.8125 -6.113281 16.8125 -6.53125 C 16.84375 -8.832031 16.859375 -11.144531 16.859375 -13.46875 C 16.859375 -16.613281 16.859375 -19.765625 16.859375 -22.921875 C 16.859375 -24.328125 16.867188 -25.726562 16.890625 -27.125 C 16.921875 -27.832031 17.289062 -28.128906 18 -28.015625 C 18.375 -27.960938 18.582031 -27.753906 18.625 -27.390625 C 18.644531 -27.066406 18.65625 -26.742188 18.65625 -26.421875 C 18.65625 -26.378906 18.65625 -26.332031 18.65625 -26.28125 C 18.65625 -21.289062 18.664062 -16.304688 18.6875 -11.328125 C 18.6875 -9.867188 18.6875 -8.40625 18.6875 -6.9375 C 18.6875 -6.863281 18.6875 -6.785156 18.6875 -6.703125 C 18.6875 -6.546875 18.6875 -6.394531 18.6875 -6.25 C 18.6875 -5.789062 18.734375 -5.515625 18.828125 -5.421875 C 18.929688 -5.328125 19.207031 -5.316406 19.65625 -5.390625 C 20.289062 -5.472656 20.925781 -5.554688 21.5625 -5.640625 C 22.488281 -5.773438 23.425781 -5.894531 24.375 -6 C 26.09375 -6.1875 27.820312 -6.363281 29.5625 -6.53125 C 30.238281 -6.59375 30.925781 -6.664062 31.625 -6.75 C 31.6875 -6.75 31.757812 -6.75 31.84375 -6.75 C 31.945312 -6.75 32.054688 -6.765625 32.171875 -6.796875 C 32.429688 -6.847656 32.566406 -7.007812 32.578125 -7.28125 C 32.597656 -7.644531 32.609375 -8.015625 32.609375 -8.390625 C 32.609375 -11.203125 32.609375 -14.007812 32.609375 -16.8125 C 32.609375 -17.75 32.609375 -18.675781 32.609375 -19.59375 C 32.609375 -19.59375 32.613281 -19.59375 32.625 -19.59375 C 32.625 -20.289062 32.625 -21 32.625 -21.71875 C 32.625 -24.738281 32.625 -27.769531 32.625 -30.8125 C 32.625 -30.9375 32.625 -31.070312 32.625 -31.21875 C 32.644531 -31.414062 32.65625 -31.601562 32.65625 -31.78125 C 32.675781 -32.164062 32.835938 -32.410156 33.140625 -32.515625 C 33.441406 -32.617188 33.722656 -32.601562 33.984375 -32.46875 C 34.160156 -32.375 34.265625 -32.234375 34.296875 -32.046875 C 34.328125 -31.671875 34.34375 -31.300781 34.34375 -30.9375 C 34.363281 -24.613281 34.378906 -18.285156 34.390625 -11.953125 C 34.390625 -10.898438 34.390625 -9.847656 34.390625 -8.796875 C 34.390625 -8.753906 34.390625 -8.707031 34.390625 -8.65625 C 34.390625 -8.507812 34.390625 -8.375 34.390625 -8.25 C 34.390625 -7.789062 34.40625 -7.460938 34.4375 -7.265625 C 34.476562 -7.078125 34.570312 -6.96875 34.71875 -6.9375 C 34.875 -6.90625 35.113281 -6.898438 35.4375 -6.921875 C 35.539062 -6.921875 35.671875 -6.921875 35.828125 -6.921875 C 37.347656 -6.953125 38.867188 -6.984375 40.390625 -7.015625 C 41.285156 -7.046875 42.191406 -7.070312 43.109375 -7.09375 C 43.484375 -7.101562 43.851562 -7.09375 44.21875 -7.0625 Z M 44.21875 -7.0625 "/></g></g></g><g fill="#000000" fill-opacity="1"><g transform="translate(92.145299, 44.380696)"><g><path d="M 39.203125 -6.171875 C 39.285156 -6.191406 39.507812 -6.238281 39.875 -6.3125 C 40.414062 -6.414062 41.070312 -6.535156 41.84375 -6.671875 C 42.613281 -6.804688 43.289062 -6.894531 43.875 -6.9375 C 44.46875 -6.988281 44.765625 -6.941406 44.765625 -6.796875 C 44.691406 -6.679688 44.328125 -6.523438 43.671875 -6.328125 C 43.023438 -6.140625 42.257812 -5.945312 41.375 -5.75 C 40.488281 -5.5625 39.671875 -5.390625 38.921875 -5.234375 C 38.171875 -5.085938 37.664062 -4.988281 37.40625 -4.9375 C 36.875 -4.84375 36.472656 -4.566406 36.203125 -4.109375 C 33.890625 -0.867188 31.207031 2.039062 28.15625 4.625 C 25.925781 6.550781 23.523438 8.238281 20.953125 9.6875 C 19.953125 10.257812 18.925781 10.765625 17.875 11.203125 C 16.832031 11.640625 15.75 11.988281 14.625 12.25 C 13.5625 12.46875 12.492188 12.53125 11.421875 12.4375 C 10.148438 12.3125 9.257812 11.84375 8.75 11.03125 C 8.238281 10.21875 8.1875 9.195312 8.59375 7.96875 C 8.882812 7.207031 9.289062 6.535156 9.8125 5.953125 C 10.644531 4.984375 11.570312 4.128906 12.59375 3.390625 C 14 2.367188 15.46875 1.457031 17 0.65625 C 17.125 0.59375 17.25 0.53125 17.375 0.46875 C 17.539062 0.382812 17.703125 0.296875 17.859375 0.203125 C 18.085938 0.0859375 18.203125 -0.09375 18.203125 -0.34375 C 18.210938 -0.507812 18.21875 -0.679688 18.21875 -0.859375 C 18.21875 -1.097656 18.21875 -1.347656 18.21875 -1.609375 C 18.21875 -4.710938 18.21875 -7.828125 18.21875 -10.953125 C 18.21875 -15.160156 18.21875 -19.382812 18.21875 -23.625 C 18.21875 -23.65625 18.21875 -23.691406 18.21875 -23.734375 C 18.21875 -24.109375 18.226562 -24.488281 18.25 -24.875 C 18.3125 -25.257812 18.582031 -25.457031 19.0625 -25.46875 C 19.53125 -25.457031 19.785156 -25.25 19.828125 -24.84375 C 19.867188 -24.507812 19.882812 -24.164062 19.875 -23.8125 C 19.875 -23.738281 19.875 -23.664062 19.875 -23.59375 C 19.882812 -20.226562 19.882812 -16.863281 19.875 -13.5 C 19.875 -9.8125 19.878906 -6.117188 19.890625 -2.421875 C 19.890625 -2.285156 19.882812 -2.148438 19.875 -2.015625 C 19.832031 -1.390625 19.882812 -1.039062 20.03125 -0.96875 C 20.175781 -0.894531 20.585938 -1.007812 21.265625 -1.3125 C 21.296875 -1.332031 21.332031 -1.351562 21.375 -1.375 C 25.382812 -3.0625 29.523438 -4.328125 33.796875 -5.171875 C 34.753906 -5.335938 35.476562 -5.847656 35.96875 -6.703125 C 37.101562 -8.679688 38.066406 -10.796875 38.859375 -13.046875 C 39.648438 -15.296875 40.1875 -17.53125 40.46875 -19.75 C 40.757812 -21.976562 40.726562 -24.039062 40.375 -25.9375 C 40.019531 -27.832031 39.273438 -29.414062 38.140625 -30.6875 C 37.015625 -31.957031 35.421875 -32.757812 33.359375 -33.09375 C 31.296875 -33.4375 28.703125 -33.160156 25.578125 -32.265625 C 24.003906 -31.835938 22.253906 -31.195312 20.328125 -30.34375 C 18.410156 -29.5 16.460938 -28.484375 14.484375 -27.296875 C 12.503906 -26.117188 10.632812 -24.832031 8.875 -23.4375 C 7.113281 -22.039062 5.597656 -20.59375 4.328125 -19.09375 C 3.066406 -17.601562 2.1875 -16.109375 1.6875 -14.609375 C 1.539062 -14.148438 1.226562 -13.925781 0.75 -13.9375 C 0.488281 -13.9375 0.296875 -14.015625 0.171875 -14.171875 C 0.0546875 -14.328125 0.0234375 -14.523438 0.078125 -14.765625 C 0.253906 -15.347656 0.503906 -15.894531 0.828125 -16.40625 C 1.585938 -17.644531 2.472656 -18.796875 3.484375 -19.859375 C 6.035156 -22.640625 9.132812 -25.1875 12.78125 -27.5 C 16.4375 -29.820312 20.066406 -31.585938 23.671875 -32.796875 C 27.003906 -33.859375 29.875 -34.320312 32.28125 -34.1875 C 34.6875 -34.0625 36.65625 -33.453125 38.1875 -32.359375 C 39.726562 -31.273438 40.851562 -29.828125 41.5625 -28.015625 C 42.28125 -26.210938 42.613281 -24.164062 42.5625 -21.875 C 42.519531 -19.582031 42.113281 -17.164062 41.34375 -14.625 C 40.582031 -12.09375 39.488281 -9.554688 38.0625 -7.015625 C 37.757812 -6.484375 37.664062 -6.171875 37.78125 -6.078125 C 37.90625 -5.992188 38.175781 -6 38.59375 -6.09375 C 38.769531 -6.125 38.972656 -6.148438 39.203125 -6.171875 Z M 33.328125 -2.90625 C 33.378906 -2.96875 33.425781 -3.023438 33.46875 -3.078125 C 33.707031 -3.316406 33.867188 -3.613281 33.953125 -3.96875 C 33.828125 -4.0625 33.703125 -4.101562 33.578125 -4.09375 C 33.453125 -4.09375 33.320312 -4.078125 33.1875 -4.046875 C 33.132812 -4.035156 33.085938 -4.019531 33.046875 -4 C 31.035156 -3.476562 29.039062 -2.898438 27.0625 -2.265625 C 25.09375 -1.628906 23.148438 -0.890625 21.234375 -0.046875 C 21.109375 0.0234375 20.988281 0.0820312 20.875 0.125 C 20.550781 0.25 20.316406 0.359375 20.171875 0.453125 C 20.023438 0.554688 19.9375 0.6875 19.90625 0.84375 C 19.882812 1 19.878906 1.226562 19.890625 1.53125 C 19.890625 1.6875 19.890625 1.878906 19.890625 2.109375 C 19.878906 2.441406 19.878906 2.769531 19.890625 3.09375 C 19.890625 3.414062 19.882812 3.75 19.875 4.09375 C 19.875 4.414062 19.851562 4.738281 19.8125 5.0625 C 19.726562 5.488281 19.46875 5.695312 19.03125 5.6875 C 18.539062 5.644531 18.285156 5.367188 18.265625 4.859375 C 18.234375 4.296875 18.21875 3.738281 18.21875 3.1875 C 18.21875 2.800781 18.21875 2.425781 18.21875 2.0625 C 18.1875 1.675781 18 1.5625 17.65625 1.71875 C 16.582031 2.300781 15.550781 2.9375 14.5625 3.625 C 13.570312 4.3125 12.65625 5.09375 11.8125 5.96875 C 11.269531 6.519531 10.832031 7.128906 10.5 7.796875 C 10.226562 8.347656 10.082031 8.929688 10.0625 9.546875 C 10.082031 10.578125 10.582031 11.21875 11.5625 11.46875 C 12.164062 11.613281 12.769531 11.625 13.375 11.5 C 14.53125 11.269531 15.644531 10.929688 16.71875 10.484375 C 17.800781 10.046875 18.851562 9.53125 19.875 8.9375 C 22.5 7.425781 24.925781 5.671875 27.15625 3.671875 C 29.394531 1.679688 31.453125 -0.507812 33.328125 -2.90625 Z M 33.328125 -2.90625 "/></g></g></g></svg>